<mxfile host="app.diagrams.net" modified="2023-11-28T08:43:44.336Z" agent="Mozilla/5.0 (Windows NT 10.0; Win64; x64) AppleWebKit/537.36 (KHTML, like Gecko) Chrome/119.0.0.0 Safari/537.36" etag="tNOf1DeSqHCtgoEJ6Liv" version="22.1.4" type="github">
  <diagram name="Page-1" id="c7558073-3199-34d8-9f00-42111426c3f3">
    <mxGraphModel dx="1149" dy="673" grid="1" gridSize="10" guides="1" tooltips="1" connect="1" arrows="1" fold="1" page="1" pageScale="1" pageWidth="826" pageHeight="1169" background="none" math="0" shadow="0">
      <root>
        <mxCell id="0" />
        <mxCell id="1" parent="0" />
        <mxCell id="47FUqNn5VWWqSbPYocdL-105" style="edgeStyle=orthogonalEdgeStyle;rounded=1;orthogonalLoop=1;jettySize=auto;html=1;exitX=0.5;exitY=1;exitDx=0;exitDy=0;strokeColor=#990000;strokeWidth=2;" edge="1" parent="1">
          <mxGeometry relative="1" as="geometry">
            <mxPoint x="457" y="637" as="targetPoint" />
            <mxPoint x="187" y="590" as="sourcePoint" />
            <Array as="points">
              <mxPoint x="187" y="637" />
            </Array>
          </mxGeometry>
        </mxCell>
        <mxCell id="10" value="&lt;p style=&quot;margin: 0px; margin-top: 4px; text-align: center; text-decoration: underline;&quot;&gt;&lt;strong&gt;&lt;strong&gt;Process&lt;/strong&gt; 6&lt;br&gt;&lt;/strong&gt;&lt;/p&gt;&lt;hr&gt;&lt;p style=&quot;margin: 0px; margin-left: 8px;&quot;&gt;空调外界系统&lt;/p&gt;&lt;p style=&quot;margin: 0px; margin-left: 8px;&quot;&gt;输入&lt;/p&gt;" style="verticalAlign=middle;align=center;overflow=fill;fontSize=12;fontFamily=Helvetica;html=1;rounded=1;fontStyle=1;strokeWidth=3;fillColor=#E6FFCC" parent="1" vertex="1">
          <mxGeometry x="80" y="513.75" width="200" height="79.25" as="geometry" />
        </mxCell>
        <mxCell id="47FUqNn5VWWqSbPYocdL-99" style="edgeStyle=orthogonalEdgeStyle;rounded=1;orthogonalLoop=1;jettySize=auto;html=1;entryX=0.5;entryY=0;entryDx=0;entryDy=0;strokeColor=#990000;strokeWidth=2;exitX=0.5;exitY=0;exitDx=0;exitDy=0;" edge="1" parent="1" source="13" target="11">
          <mxGeometry relative="1" as="geometry">
            <mxPoint x="630" y="200" as="targetPoint" />
            <Array as="points">
              <mxPoint x="675" y="410" />
              <mxPoint x="399" y="410" />
            </Array>
          </mxGeometry>
        </mxCell>
        <mxCell id="13" value="递推最小二乘法参数辨识" style="whiteSpace=wrap;align=center;verticalAlign=middle;fontStyle=1;strokeWidth=3;fillColor=#FFFFCC" parent="1" vertex="1">
          <mxGeometry x="580" y="450" width="190" height="280" as="geometry" />
        </mxCell>
        <mxCell id="11" value="&lt;p style=&quot;margin: 0px; margin-top: 4px; text-align: center; text-decoration: underline;&quot;&gt;&lt;strong&gt;&lt;strong&gt;Process&lt;/strong&gt; 7&lt;br&gt;&lt;/strong&gt;&lt;/p&gt;&lt;hr&gt;&lt;p style=&quot;margin: 0px; margin-left: 8px;&quot;&gt;基于微分方程的&lt;/p&gt;&lt;p style=&quot;margin: 0px; margin-left: 8px;&quot;&gt;物理模型估算&lt;/p&gt;&lt;p style=&quot;margin: 0px; margin-left: 8px;&quot;&gt;的蒸发器温度&lt;/p&gt;" style="verticalAlign=middle;align=center;overflow=fill;fontSize=12;fontFamily=Helvetica;html=1;rounded=1;fontStyle=1;strokeWidth=3;fillColor=#E6FFCC" parent="1" vertex="1">
          <mxGeometry x="343.49999999999994" y="509" width="110" height="90" as="geometry" />
        </mxCell>
        <mxCell id="83" value="" style="edgeStyle=elbowEdgeStyle;elbow=horizontal;strokeColor=#990000;strokeWidth=2" parent="1" source="11" edge="1">
          <mxGeometry width="100" height="100" relative="1" as="geometry">
            <mxPoint x="200" y="659.0000000000002" as="sourcePoint" />
            <mxPoint x="578" y="554.75" as="targetPoint" />
          </mxGeometry>
        </mxCell>
        <mxCell id="85" value="" style="edgeStyle=elbowEdgeStyle;elbow=horizontal;strokeColor=#990000;strokeWidth=2;exitX=1;exitY=0.5;exitDx=0;exitDy=0;entryX=0;entryY=0.5;entryDx=0;entryDy=0;" parent="1" source="10" target="11" edge="1">
          <mxGeometry width="100" height="100" relative="1" as="geometry">
            <mxPoint x="300" y="560" as="sourcePoint" />
            <mxPoint x="340" y="555" as="targetPoint" />
            <Array as="points">
              <mxPoint x="330" y="562" />
            </Array>
          </mxGeometry>
        </mxCell>
        <mxCell id="47FUqNn5VWWqSbPYocdL-98" style="edgeStyle=orthogonalEdgeStyle;rounded=1;orthogonalLoop=1;jettySize=auto;html=1;entryX=0.002;entryY=0.815;entryDx=0;entryDy=0;entryPerimeter=0;strokeColor=#990000;strokeWidth=2;" edge="1" parent="1">
          <mxGeometry relative="1" as="geometry">
            <mxPoint x="500" y="718" as="sourcePoint" />
            <mxPoint x="580.3799999999999" y="718.1999999999998" as="targetPoint" />
          </mxGeometry>
        </mxCell>
        <mxCell id="47FUqNn5VWWqSbPYocdL-102" value="&lt;p style=&quot;margin: 0px; margin-top: 4px; text-align: center; text-decoration: underline;&quot;&gt;&lt;strong&gt;&lt;strong&gt;Process&lt;/strong&gt; 6&lt;br&gt;&lt;/strong&gt;&lt;/p&gt;&lt;hr&gt;&lt;p style=&quot;margin: 0px; margin-left: 8px;&quot;&gt;传感器实测的蒸发器温度&lt;/p&gt;" style="verticalAlign=middle;align=center;overflow=fill;fontSize=12;fontFamily=Helvetica;html=1;rounded=1;fontStyle=1;strokeWidth=3;fillColor=#E6FFCC" vertex="1" parent="1">
          <mxGeometry x="298.5" y="680" width="200" height="79.25" as="geometry" />
        </mxCell>
        <mxCell id="47FUqNn5VWWqSbPYocdL-117" value="" style="edgeStyle=orthogonalEdgeStyle;rounded=0;orthogonalLoop=1;jettySize=auto;html=1;exitX=0.131;exitY=0.362;exitDx=0;exitDy=0;exitPerimeter=0;entryX=-0.013;entryY=0.538;entryDx=0;entryDy=0;entryPerimeter=0;" edge="1" parent="1" source="47FUqNn5VWWqSbPYocdL-110" target="13">
          <mxGeometry relative="1" as="geometry" />
        </mxCell>
        <mxCell id="47FUqNn5VWWqSbPYocdL-110" value="" style="line;strokeWidth=2;direction=south;html=1;" vertex="1" parent="1">
          <mxGeometry x="455.5" y="590" width="10" height="80" as="geometry" />
        </mxCell>
        <mxCell id="47FUqNn5VWWqSbPYocdL-120" value="" style="edgeStyle=orthogonalEdgeStyle;rounded=0;orthogonalLoop=1;jettySize=auto;html=1;exitX=0.131;exitY=0.362;exitDx=0;exitDy=0;exitPerimeter=0;entryX=-0.013;entryY=0.538;entryDx=0;entryDy=0;entryPerimeter=0;" edge="1" parent="1">
          <mxGeometry relative="1" as="geometry">
            <mxPoint x="460.47" y="623.52" as="sourcePoint" />
            <mxPoint x="578.47" y="624.52" as="targetPoint" />
            <Array as="points">
              <mxPoint x="461" y="625" />
              <mxPoint x="520" y="625" />
            </Array>
          </mxGeometry>
        </mxCell>
        <mxCell id="47FUqNn5VWWqSbPYocdL-122" value="" style="edgeStyle=orthogonalEdgeStyle;rounded=0;orthogonalLoop=1;jettySize=auto;html=1;exitX=0.131;exitY=0.362;exitDx=0;exitDy=0;exitPerimeter=0;" edge="1" parent="1">
          <mxGeometry relative="1" as="geometry">
            <mxPoint x="460.47" y="649.52" as="sourcePoint" />
            <mxPoint x="579" y="650" as="targetPoint" />
            <Array as="points">
              <mxPoint x="520" y="650" />
            </Array>
          </mxGeometry>
        </mxCell>
      </root>
    </mxGraphModel>
  </diagram>
</mxfile>
